<?xml version="1.0" standalone="no"?>
<!DOCTYPE svg PUBLIC "-//W3C//DTD SVG 20010904//EN"
 "http://www.w3.org/TR/2001/REC-SVG-20010904/DTD/svg10.dtd">
<svg version="1.0" xmlns="http://www.w3.org/2000/svg"
 width="225.000000pt" height="224.000000pt" viewBox="0 0 225.000000 224.000000"
 preserveAspectRatio="xMidYMid meet">
<metadata>
Created by potrace 1.16, written by Peter Selinger 2001-2019
</metadata>
<g transform="translate(0.000000,224.000000) scale(0.100000,-0.100000)"
fill="#000000" stroke="none">
<path d="M1617 1613 c57 -61 92 -111 121 -168 108 -215 108 -425 0 -645 -33
-67 -58 -101 -122 -165 -45 -44 -107 -95 -138 -113 -266 -157 -612 -117 -835
97 -24 22 -43 37 -43 32 0 -21 152 -138 220 -169 100 -46 129 -54 224 -67 85
-12 112 -11 200 2 55 9 104 21 108 27 5 7 8 6 8 -4 0 -11 2 -12 8 -3 4 7 30
22 57 34 54 24 125 68 137 84 5 7 8 7 8 0 0 -5 16 8 36 30 19 22 32 34 28 26
-5 -9 -3 -12 4 -7 7 4 12 13 12 21 0 7 9 17 21 20 11 4 18 12 16 19 -3 7 8 27
24 45 15 18 34 46 41 62 7 16 16 29 20 29 4 0 5 6 2 14 -3 7 1 20 8 27 8 8 23
50 33 94 38 155 19 346 -47 478 -15 31 -26 57 -23 57 3 0 -2 8 -10 18 -9 9
-41 47 -72 85 -30 37 -59 67 -64 67 -4 0 4 -12 18 -27z"/>
<path d="M1465 1533 c-145 -105 -400 -360 -485 -485 l-24 -36 -36 18 c-19 10
-75 51 -124 90 l-90 70 -33 -32 c-18 -17 -33 -35 -33 -39 0 -4 47 -74 105
-156 58 -81 110 -155 115 -163 37 -57 92 -130 98 -130 4 0 34 46 67 103 164
281 355 543 524 720 l74 77 -54 0 c-46 0 -61 -6 -104 -37z"/>
</g>
</svg>
